<svg xmlns="http://www.w3.org/2000/svg" fill="none" viewBox="0 0 960 640">
  <path fill="#fff" d="M751.996 319.984c0-150.234-121.776-272.01-272.01-272.01-150.235 0-271.98 121.805-271.98 272.01 0 150.205 121.775 272.01 272.009 272.01 150.235 0 272.01-121.775 272.01-272.01"/>
  <path fill="#FDB717" d="M479.985 0C303.275 0 160 143.275 160 319.985S303.275 639.97 479.985 639.97 799.97 496.695 799.97 319.985 656.725 0 479.985 0Zm0 591.995c-150.234 0-272.009-121.775-272.009-272.01 0-150.234 121.804-271.98 272.009-271.98s272.01 121.775 272.01 272.01c0 150.234-121.775 272.009-272.01 272.009"/>
  <path fill="#000" d="M750.989 343.203a273.492 273.492 0 0 0 1.007-23.188c0-7.788-.356-15.547-1.007-23.188H632.501v-96.514l55.498-55.498a272.562 272.562 0 0 0-32.813-32.812L599.688 167.5l-31.687-31.687h-64.827v-86.77a272.72 272.72 0 0 0-23.188-1.008c-7.818 0-15.547.356-23.188 1.007v86.83l-128.113.059-23.898-23.899a272.498 272.498 0 0 0-32.813 32.813l78.152 78.153v73.859H208.983a272.97 272.97 0 0 0-1.006 23.188c0 7.818.355 15.547 1.006 23.188h141.114v73.859l-15.814 15.814-62.339 62.338a272.498 272.498 0 0 0 32.813 32.813l23.899-23.899h128.112v86.889a273.12 273.12 0 0 0 23.189 1.007c7.788 0 15.547-.355 23.188-1.007v-86.889h64.944l31.599-31.598 55.498 55.497a272.498 272.498 0 0 0 32.813-32.813l-55.498-55.497v-96.514h118.488v-.03ZM348.734 484.08v-37.255l21.441-21.441V214.647l-21.441-21.441v-37.285l210.975-.089 52.743 52.744v79.9l-31.51 31.51 31.51 31.509v79.9l-52.655 52.655H348.734v.03Z"/>
  <path fill="#FDB717" d="m612.481 351.495-31.51-31.51 31.51-31.509v-79.9l-52.743-52.744-210.974.089v37.285l21.441 21.441v210.737l-21.441 21.441v37.255h211.092l52.655-52.655v-79.9l-.03-.03ZM550.261 408l-19.812 19.812H429.078v-79.663l101.401-.059 19.752 19.753V408h.03Zm0-135.99-19.812 19.812H429.078v-79.663l101.401-.059 19.752 19.753v40.157h.03Z"/>
  <path fill="#000" d="M429.078 212.159v79.663h101.371l19.812-19.812v-40.157L530.508 212.1l-101.4.059h-.03Zm20.049 59.614v-39.565l73.059-.059 7.996 7.996v23.543l-8.055 8.055h-73v.03Zm-20.049 76.405v79.664h101.371l19.812-19.813v-40.157l-19.753-19.753-101.4.089-.03-.03Zm20.049 59.614v-39.565l73.059-.059 7.996 8.026v23.543l-8.055 8.055h-73Z"/>
  <path fill="#FDB717" d="M682.164 588.797c0 6.722 5.449 12.171 12.172 12.171 6.722 0 12.171-5.449 12.171-12.171 0-6.723-5.449-12.172-12.171-12.172-6.723 0-12.172 5.449-12.172 12.172Zm21.737 0c0 5.271-4.264 9.565-9.565 9.565-5.301 0-9.566-4.294-9.566-9.565 0-5.272 4.294-9.566 9.566-9.566 5.271 0 9.565 4.265 9.565 9.566Z"/>
  <path fill="#FDB717" d="M689.33 595.757h2.606V590.1h1.866l2.636 5.657h2.872l-2.754-5.894a4.134 4.134 0 0 0 2.754-3.879c0-2.28-1.836-4.146-4.116-4.146h-5.864v13.919Zm2.606-11.283h3.258c.829 0 1.51.681 1.51 1.51s-.681 1.51-1.51 1.51h-3.258v-3.02Z"/>
</svg>
